<?xml version="1.0" encoding="utf-8"?>
<!-- Generator: Adobe Illustrator 13.0.0, SVG Export Plug-In  -->
<!DOCTYPE svg PUBLIC "-//W3C//DTD SVG 1.1//EN" "http://www.w3.org/Graphics/SVG/1.1/DTD/svg11.dtd" [
	<!ENTITY ns_flows "http://ns.adobe.com/Flows/1.0/">
]>
<svg version="1.1"
	 xmlns="http://www.w3.org/2000/svg" xmlns:xlink="http://www.w3.org/1999/xlink" xmlns:a="http://ns.adobe.com/AdobeSVGViewerExtensions/3.0/"
	 x="0px" y="0px" width="147px" height="36px" viewBox="-0.042 -0.542 147 36" enable-background="new -0.042 -0.542 147 36"
	 xml:space="preserve">
<defs>
</defs>
<circle fill="#FFFFFF" stroke="#F47564" stroke-width="1.5" cx="17.875" cy="17.875" r="17.125"/>
<path fill="#F47564" d="M16.271,20.023c0,1.813,0.144,13.88,0.24,14.596h-4.657c0.192-1.145,0.096-16.265,0.096-17.267V13.44
	c0-1.431-0.096-11.305-0.24-12.211c2.256,0,6.289,0.047,9.985,0.477c6.337,0.763,9.937,3.434,9.937,7.489
	c0,4.054-2.736,7.202-6.672,9.683c1.2,1.622,9.841,12.259,11.185,13.689l-3.648,2.91c-0.528-0.667-11.329-14.739-12.769-16.742
	c2.4-1.288,7.2-4.197,7.2-8.872c0-2.146-1.584-5.342-10.657-5.438V20.023z"/>
<path fill="#F47564" d="M57.678,18.52c1.45,1.109,2.176,2.656,2.176,4.64c-0.021,0.704,0.021,1.333,0.128,1.888
	c0.555,0.171,0.928,0.539,1.12,1.104c0.192,0.565,0.106,1.094-0.256,1.584c-0.363,0.491-0.886,0.736-1.568,0.736h-0.032
	c-0.96,0-1.718-0.491-2.272-1.472c-0.448-0.938-0.672-2.219-0.672-3.84c-0.043-0.981-0.491-1.749-1.344-2.304
	c-0.555-0.362-1.152-0.619-1.792-0.768H49.39v6.944c0,0.491-0.176,0.907-0.528,1.248c-0.352,0.342-0.773,0.512-1.264,0.512
	c-0.491,0-0.907-0.17-1.248-0.512c-0.342-0.341-0.512-0.757-0.512-1.248V8.151c0-0.49,0.17-0.906,0.512-1.248
	c0.341-0.341,0.757-0.512,1.248-0.512h5.728c1.898,0,3.514,0.672,4.848,2.016c1.333,1.344,2,3.019,2,5.024
	S59.342,17.133,57.678,18.52z M53.326,16.536c0.917,0,1.696-0.32,2.336-0.96c0.64-0.64,0.96-1.413,0.96-2.32
	c0-0.906-0.32-1.685-0.96-2.336c-0.64-0.65-1.419-0.976-2.336-0.976H49.39v6.592H53.326z"/>
<path fill="#F47564" d="M80.334,20.375c0,0.47-0.155,0.848-0.464,1.136c-0.31,0.288-0.72,0.432-1.232,0.432H68.462
	c0.192,0.917,0.555,1.622,1.088,2.112c0.683,0.79,1.68,1.264,2.992,1.424s2.448-0.101,3.408-0.784
	c0.32-0.341,0.746-0.512,1.28-0.512c0.533,0,0.907,0.139,1.12,0.416c0.597,0.662,0.597,1.355,0,2.08
	c-1.536,1.408-3.419,2.107-5.648,2.096c-2.229-0.01-4.096-0.794-5.6-2.352c-1.504-1.557-2.267-3.435-2.288-5.632
	c0.021-2.197,0.784-4.08,2.288-5.648s3.322-2.352,5.456-2.352c2.133,0,3.93,0.699,5.392,2.096c1.461,1.397,2.256,3.173,2.384,5.328
	V20.375z M72.622,15.832c-1.238,0.064-2.229,0.448-2.976,1.152c-0.747,0.704-1.195,1.451-1.344,2.24h9.056
	c-0.192-0.747-0.709-1.472-1.552-2.176C74.963,16.343,73.902,15.938,72.622,15.832z"/>
<path fill="#F47564" d="M95.31,14.551c0.384,0.256,0.624,0.614,0.72,1.072c0.096,0.459,0.026,0.891-0.208,1.296
	c-0.256,0.384-0.613,0.624-1.072,0.72c-0.459,0.096-0.891,0.005-1.296-0.272c-1.195-0.789-2.181-1.184-2.96-1.184
	s-1.414,0.192-1.904,0.576c-0.341,0.235-0.512,0.443-0.512,0.624c0,0.182,0.027,0.315,0.08,0.4c0.053,0.085,0.165,0.181,0.336,0.288
	c0.469,0.32,1.248,0.576,2.336,0.768l0.032,0.032h0.032c1.13,0.213,2.165,0.533,3.104,0.96s1.632,1.014,2.08,1.76
	c0.448,0.747,0.672,1.483,0.672,2.208c0,1.494-0.672,2.731-2.016,3.712c-1.238,0.854-2.624,1.28-4.16,1.28
	c-1.984-0.021-3.883-0.757-5.696-2.208c-0.342-0.277-0.539-0.656-0.592-1.136c-0.053-0.48,0.069-0.89,0.368-1.232
	c0.277-0.384,0.661-0.597,1.152-0.64c0.491-0.042,0.907,0.085,1.248,0.384c1.152,0.96,2.325,1.43,3.52,1.408
	c0.811,0,1.536-0.203,2.176-0.608c0.384-0.32,0.576-0.592,0.576-0.816c0-0.224-0.032-0.378-0.096-0.464
	c-0.043-0.106-0.182-0.234-0.416-0.384c-0.512-0.363-1.366-0.661-2.56-0.896h-0.032c-1.131-0.213-2.117-0.522-2.96-0.928
	c-0.843-0.405-1.52-0.992-2.032-1.76c-0.363-0.597-0.544-1.269-0.544-2.016c0-1.387,0.629-2.56,1.888-3.52
	c1.152-0.789,2.469-1.184,3.952-1.184C92.008,12.792,93.603,13.378,95.31,14.551z"/>
<path fill="#F47564" d="M106.573,12.792c0.49,0,0.912,0.171,1.265,0.512c0.352,0.341,0.527,0.752,0.527,1.232
	s-0.176,0.896-0.527,1.248c-0.353,0.352-0.774,0.528-1.265,0.528h-0.8v8.928c0.49,0,0.906,0.176,1.248,0.528
	c0.341,0.352,0.512,0.773,0.512,1.264s-0.171,0.907-0.512,1.248c-0.342,0.342-0.758,0.512-1.248,0.512
	c-0.981,0-1.819-0.347-2.512-1.04c-0.693-0.693-1.04-1.53-1.04-2.512v-8.928h-0.928c-0.491,0-0.907-0.17-1.248-0.512
	c-0.341-0.341-0.512-0.757-0.512-1.248c0-0.49,0.17-0.906,0.512-1.248c0.341-0.341,0.757-0.512,1.248-0.512h0.928v-4.64
	c0-0.49,0.176-0.906,0.528-1.248c0.352-0.341,0.773-0.512,1.264-0.512c0.49,0,0.906,0.171,1.248,0.512
	c0.341,0.342,0.512,0.758,0.512,1.248v4.64H106.573z"/>
<path fill="#F47564" d="M123.117,13.271c0.32-0.32,0.715-0.48,1.184-0.48c0.47,0,0.875,0.166,1.217,0.496
	c0.341,0.331,0.512,0.731,0.512,1.2v12.096c0,2.133-0.741,3.941-2.224,5.424c-1.483,1.483-3.291,2.224-5.425,2.224
	c-1.131,0-2.229-0.267-3.296-0.8c-0.447-0.192-0.747-0.507-0.896-0.944c-0.149-0.438-0.128-0.88,0.063-1.328
	c0.213-0.384,0.55-0.651,1.009-0.8c0.458-0.149,0.943-0.096,1.455,0.16c0.513,0.256,1.152,0.378,1.921,0.368
	c0.768-0.011,1.52-0.288,2.256-0.832c0.735-0.544,1.231-1.232,1.487-2.064c-0.896,0.512-1.909,0.768-3.04,0.768
	c-1.835,0-3.407-0.661-4.72-1.984c-1.312-1.322-1.968-2.901-1.968-4.736v-7.552c0-0.469,0.165-0.869,0.496-1.2
	c0.33-0.331,0.73-0.496,1.2-0.496c0.469,0,0.863,0.16,1.184,0.48s0.48,0.726,0.48,1.216v7.552c0,0.917,0.324,1.691,0.976,2.32
	c0.65,0.629,1.435,0.944,2.352,0.944s1.696-0.315,2.337-0.944c0.64-0.629,0.96-1.402,0.96-2.32v-7.552
	C122.638,13.997,122.797,13.591,123.117,13.271z"/>
<path fill="#F47564" d="M133.277,26.456c-1.461-1.557-2.191-3.44-2.191-5.648s0.73-4.096,2.191-5.664s3.27-2.352,5.425-2.352
	c1.514,0,2.933,0.47,4.256,1.408c0.106-0.405,0.309-0.741,0.607-1.008c0.299-0.267,0.667-0.4,1.104-0.4
	c0.437,0,0.82,0.171,1.151,0.512s0.496,0.747,0.496,1.216v12.576c0,0.469-0.165,0.869-0.496,1.2
	c-0.331,0.331-0.715,0.496-1.151,0.496c-0.438,0-0.806-0.128-1.104-0.384c-0.299-0.256-0.501-0.587-0.607-0.992
	c-1.302,0.917-2.721,1.376-4.256,1.376C136.547,28.792,134.738,28.013,133.277,26.456z M134.51,20.808
	c0,1.291,0.389,2.374,1.168,3.248c0.778,0.875,1.781,1.312,3.008,1.312s2.24-0.437,3.04-1.312c0.8-0.875,1.2-1.952,1.2-3.232
	c0-1.28-0.405-2.368-1.216-3.264c-0.812-0.896-1.819-1.344-3.024-1.344s-2.203,0.443-2.992,1.328
	C134.904,18.429,134.51,19.517,134.51,20.808z"/>
</svg>
